<?xml version="1.0" encoding="UTF-8"?>
<svg width="32px" height="32px" viewBox="0 0 32 32" version="1.1" xmlns="http://www.w3.org/2000/svg" xmlns:xlink="http://www.w3.org/1999/xlink">
    <title>29FF251C-6EDB-4F05-B632-68ABEF35DB98</title>
    <g id="homepage_new" stroke="none" stroke-width="1" fill="none" fill-rule="evenodd">
        <g id="Accueil" transform="translate(-845.000000, -865.000000)" fill="#E7AC46">
            <g id="how-to" transform="translate(215.000000, 738.000000)">
                <g id="right-content" transform="translate(630.000000, 0.000000)">
                    <g id="icon" transform="translate(0.000000, 127.000000)">
                        <path d="M27.5,0 C29.981,0 32,2.019 32,4.5 L32,4.5 L32,27.5 C32,29.981 29.981,32 27.5,32 L27.5,32 L4.5,32 C2.019,32 0,29.981 0,27.5 L0,27.5 L0,4.5 C0,2.019 2.019,0 4.5,0 L4.5,0 Z M27.5,3 L4.5,3 C3.673,3 3,3.673 3,4.5 L3,4.5 L3,27.5 C3,28.327 3.673,29 4.5,29 L4.5,29 L27.5,29 C28.327,29 29,28.327 29,27.5 L29,27.5 L29,4.5 C29,3.673 28.327,3 27.5,3 L27.5,3 Z M22.9395,9.6064 C23.5255,9.0204 24.4745,9.0204 25.0605,9.6064 C25.6465,10.1924 25.6465,11.1414 25.0605,11.7274 L25.0605,11.7274 L14.3945,22.3944 C14.1135,22.6754 13.7315,22.8344 13.3345,22.8344 C12.9365,22.8344 12.5545,22.6754 12.2735,22.3944 L12.2735,22.3944 L6.9395,17.0604 C6.3535,16.4744 6.3535,15.5254 6.9395,14.9394 C7.5255,14.3534 8.4745,14.3534 9.0605,14.9394 L9.0605,14.9394 L13.3345,19.2124 Z" id="do"></path>
                    </g>
                </g>
            </g>
        </g>
    </g>
</svg>