<?xml version="1.0" encoding="UTF-8"?>
<svg width="60px" height="60px" viewBox="0 0 60 60" version="1.1" xmlns="http://www.w3.org/2000/svg" xmlns:xlink="http://www.w3.org/1999/xlink">
    <title>9F0B4206-482A-42FF-8944-48F5F54D8674</title>
    <g id="homepage_new" stroke="none" stroke-width="1" fill="none" fill-rule="evenodd">
        <g id="Accueil" transform="translate(-215.000000, -889.000000)" fill="#E7AC46">
            <g id="how-to" transform="translate(215.000000, 738.000000)">
                <g id="icon" transform="translate(0.000000, 151.000000)">
                    <path d="M47.1556,0.0003 C49.0856,0.0003 50.6556,1.5703 50.6556,3.5003 L50.6556,3.5003 L50.6556,8.4093 L53.8276,8.4093 C57.2306,8.4093 59.9996,11.1783 59.9996,14.5823 L59.9996,14.5823 L59.9996,44.4833 C59.9996,47.8863 57.2306,50.6553 53.8276,50.6553 L53.8276,50.6553 L35.5246,50.6553 L38.0616,57.0003 L46.3516,57.0003 C47.1806,57.0003 47.8516,57.6723 47.8516,58.5003 C47.8516,59.3283 47.1806,60.0003 46.3516,60.0003 L46.3516,60.0003 L13.6476,60.0003 C12.8186,60.0003 12.1476,59.3283 12.1476,58.5003 C12.1476,57.6723 12.8186,57.0003 13.6476,57.0003 L13.6476,57.0003 L21.9376,57.0003 L24.4746,50.6553 L6.1716,50.6553 C2.7686,50.6553 -0.0004,47.8863 -0.0004,44.4833 L-0.0004,44.4833 L-0.0004,14.5823 C-0.0004,11.1783 2.7686,8.4093 6.1716,8.4093 L6.1716,8.4093 L9.3446,8.4093 L9.3446,3.5003 C9.3446,1.5703 10.9146,0.0003 12.8446,0.0003 L12.8446,0.0003 Z M32.2936,50.6553 L27.7056,50.6553 L25.1686,57.0003 L34.8316,57.0003 L32.2936,50.6553 Z M56.9996,40.4973 L2.9996,40.4973 L2.9996,44.4833 C2.9996,46.2323 4.4226,47.6553 6.1716,47.6553 L6.1716,47.6553 L53.8276,47.6553 C55.5766,47.6553 56.9996,46.2323 56.9996,44.4833 L56.9996,44.4833 L56.9996,40.4973 Z M47.1556,3.0003 L12.8446,3.0003 C12.5686,3.0003 12.3446,3.2243 12.3446,3.5003 L12.3446,3.5003 L12.3446,32.2053 C12.3446,33.0333 11.6726,33.7053 10.8446,33.7053 C10.0156,33.7053 9.3446,33.0333 9.3446,32.2053 L9.3446,32.2053 L9.3446,11.4093 L6.1716,11.4093 C4.4226,11.4093 2.9996,12.8323 2.9996,14.5823 L2.9996,14.5823 L2.9996,37.4973 L56.9996,37.4973 L56.9996,14.5823 C56.9996,12.8323 55.5766,11.4093 53.8276,11.4093 L53.8276,11.4093 L50.6556,11.4093 L50.6556,32.2053 C50.6556,33.0333 49.9846,33.7053 49.1556,33.7053 C48.3276,33.7053 47.6556,33.0333 47.6556,32.2053 L47.6556,32.2053 L47.6556,3.5003 C47.6556,3.2243 47.4316,3.0003 47.1556,3.0003 L47.1556,3.0003 Z M39.8115,21.0996 C40.6405,21.0996 41.3115,21.7716 41.3115,22.5996 C41.3115,23.4276 40.6405,24.0996 39.8115,24.0996 L39.8115,24.0996 L20.1885,24.0996 C19.3595,24.0996 18.6885,23.4276 18.6885,22.5996 C18.6885,21.7716 19.3595,21.0996 20.1885,21.0996 L20.1885,21.0996 Z M39.8115,13.624 C40.6405,13.624 41.3115,14.296 41.3115,15.124 C41.3115,15.952 40.6405,16.624 39.8115,16.624 L39.8115,16.624 L20.1885,16.624 C19.3595,16.624 18.6885,15.952 18.6885,15.124 C18.6885,14.296 19.3595,13.624 20.1885,13.624 L20.1885,13.624 Z" id="signin"></path>
                </g>
            </g>
        </g>
    </g>
</svg>