<?xml version="1.0" encoding="UTF-8"?>
<svg width="60px" height="60px" viewBox="0 0 60 60" version="1.1" xmlns="http://www.w3.org/2000/svg" xmlns:xlink="http://www.w3.org/1999/xlink">
    <title>749C5C7F-133E-4B2C-B1DC-B54F045BF678</title>
    <g id="homepage_new" stroke="none" stroke-width="1" fill="none" fill-rule="evenodd">
        <g id="Accueil" transform="translate(-215.000000, -989.000000)" fill="#E7AC46">
            <g id="how-to" transform="translate(215.000000, 738.000000)">
                <g id="how-to" transform="translate(0.000000, 151.000000)">
                    <g id="icon" transform="translate(0.000000, 100.000000)">
                        <path d="M37.1246,0.0002 C41.2386,0.0002 45.0906,1.0442 48.5756,3.1032 C52.0466,5.1542 54.8466,7.9542 56.8966,11.4252 C58.9556,14.9092 59.9996,18.7612 59.9996,22.8752 C59.9996,25.3972 59.6756,27.6702 59.0356,29.6312 C58.3956,31.5882 57.2146,33.9032 55.4226,36.7082 C54.2296,38.5712 51.7466,42.2202 48.0426,47.5542 L48.0426,47.5542 L40.5816,58.2452 C39.7776,59.3932 38.5826,60.0002 37.1246,60.0002 C35.6676,60.0002 34.4726,59.3932 33.6696,58.2472 C31.7446,55.4322 29.2386,51.8442 26.2146,47.5652 C25.7566,46.9062 25.3176,46.2732 24.8976,45.6652 L24.8976,45.6652 L20.6876,51.6962 C20.0056,52.6712 18.9946,53.1842 17.7636,53.1842 C16.5326,53.1842 15.5216,52.6712 14.8406,51.6982 C13.3776,49.5592 11.5256,46.9052 9.1696,43.5722 C6.2936,39.4302 4.4546,36.7272 3.5396,35.2982 C2.1596,33.1362 1.2466,31.3472 0.7516,29.8302 C0.2526,28.3032 -0.000400000001,26.5362 -0.000400000001,24.5792 C-0.000400000001,21.3842 0.8106,18.3912 2.4116,15.6842 C4.0026,12.9902 6.1756,10.8172 8.8686,9.2262 C11.5776,7.6272 14.5696,6.8152 17.7636,6.8152 C18.7506,6.8152 19.7166,6.9172 20.6626,7.0702 C22.1326,5.5412 23.8026,4.2102 25.6746,3.1032 C29.1596,1.0442 33.0116,0.0002 37.1246,0.0002 Z M37.1246,3.0002 C33.5556,3.0002 30.2166,3.9032 27.2006,5.6852 C24.1706,7.4762 21.7266,9.9212 19.9356,12.9502 C18.1536,15.9672 17.2496,19.3052 17.2496,22.8752 C17.2496,25.0802 17.5246,27.0402 18.0666,28.6992 C18.6186,30.3882 19.7256,32.5402 21.3556,35.0932 C21.5898,35.4592 21.87564,35.89668 22.21256,36.40484 L22.5138449,36.8576964 C23.8735069,38.89492 25.9356571,41.9040857 28.6716,45.8442 C31.6976,50.1242 34.2116,53.7262 36.1366,56.5402 C36.2996,56.7722 36.5396,57.0002 37.1246,57.0002 C37.7106,57.0002 37.9506,56.7722 38.1226,56.5262 L38.1226,56.5262 L45.5806,45.8412 C48.3150571,41.9033143 50.3768253,38.8947216 51.7363891,36.8572355 L52.037656,36.404304 C52.37456,35.89604 52.6604,35.4584 52.8946,35.0922 C54.5246,32.5402 55.6316,30.3882 56.1836,28.6992 C56.7256,27.0402 56.9996,25.0802 56.9996,22.8752 C56.9996,19.3052 56.0966,15.9672 54.3136,12.9502 C52.5236,9.9212 50.0796,7.4762 47.0496,5.6852 C44.0336,3.9032 40.6946,3.0002 37.1246,3.0002 Z M17.7636,9.8152 C15.1136,9.8152 12.6346,10.4862 10.3946,11.8092 C8.1416,13.1392 6.3256,14.9572 4.9946,17.2102 C3.6706,19.4492 2.9996,21.9282 2.9996,24.5792 C2.9996,26.2192 3.2036,27.6722 3.6036,28.8982 C4.0136,30.1542 4.8426,31.7632 6.0676,33.6812 C6.9496,35.0592 8.8196,37.8072 11.6266,41.8502 C13.9846,45.1862 15.8456,47.8522 17.3086,49.9912 C17.3836,50.0982 17.4666,50.1842 17.7636,50.1842 C18.0606,50.1842 18.1446,50.0982 18.2296,49.9772 L18.2296,49.9772 L23.0796,43.0282 C21.0776,40.1122 19.6436,37.9822 18.8286,36.7092 C17.0356,33.9032 15.8536,31.5882 15.2146,29.6312 C14.5746,27.6702 14.2496,25.3972 14.2496,22.8752 C14.2496,18.7612 15.2936,14.9092 17.3526,11.4252 C17.6746,10.8802 18.0216,10.3582 18.3796,9.8462 C18.1736,9.8392 17.9716,9.8152 17.7636,9.8152 Z M37.1254,13.3748 C39.7274,13.3748 41.9854,14.3138 43.8354,16.1638 C45.6864,18.0158 46.6254,20.2738 46.6254,22.8748 C46.6254,25.4768 45.6864,27.7348 43.8364,29.5858 L43.8364,29.5858 C41.9854,31.4368 39.7274,32.3748 37.1254,32.3748 C34.5234,32.3748 32.2654,31.4368 30.4144,29.5858 C28.5634,27.7348 27.6254,25.4768 27.6254,22.8748 C27.6254,20.2738 28.5634,18.0158 30.4144,16.1638 C32.2654,14.3138 34.5234,13.3748 37.1254,13.3748 Z M37.1254,16.3748 C35.3224,16.3748 33.8214,16.9998 32.5354,18.2848 C31.2504,19.5708 30.6254,21.0718 30.6254,22.8748 C30.6254,24.6778 31.2504,26.1788 32.5364,27.4648 C33.8214,28.7498 35.3224,29.3748 37.1254,29.3748 C38.9274,29.3748 40.4284,28.7498 41.7144,27.4648 C43.0004,26.1788 43.6254,24.6778 43.6254,22.8748 C43.6254,21.0718 43.0004,19.5708 41.7144,18.2848 C40.4284,16.9998 38.9274,16.3748 37.1254,16.3748 Z" id="location"></path>
                    </g>
                </g>
            </g>
        </g>
    </g>
</svg>