<?xml version="1.0" encoding="UTF-8"?>
<svg width="60px" height="60px" viewBox="0 0 60 60" version="1.1" xmlns="http://www.w3.org/2000/svg" xmlns:xlink="http://www.w3.org/1999/xlink">
    <title>3CF4BA62-2BDC-4699-844B-5ACA8409610E</title>
    <g id="homepage_new" stroke="none" stroke-width="1" fill="none" fill-rule="evenodd">
        <g id="Accueil" transform="translate(-215.000000, -1137.000000)" fill="#E7AC46">
            <g id="how-to" transform="translate(215.000000, 738.000000)">
                <g id="how-to" transform="translate(0.000000, 151.000000)">
                    <g id="icon" transform="translate(0.000000, 248.000000)">
                        <path d="M52.9985,57 C53.8275,57 54.4985,57.672 54.4985,58.5 C54.4985,59.328 53.8275,60 52.9985,60 L52.9985,60 L6.9985,60 C6.1695,60 5.4985,59.328 5.4985,58.5 C5.4985,57.672 6.1695,57 6.9985,57 L6.9985,57 Z M41.0166,0.5003 C42.3036,-0.0987 43.7466,-0.1617 45.0806,0.3223 C46.4146,0.8073 47.4796,1.7833 48.0796,3.0703 L48.0796,3.0703 L59.4996,27.5603 C60.0996,28.8463 60.1626,30.2903 59.6776,31.6243 C59.1916,32.9583 58.2156,34.0223 56.9296,34.6233 L56.9296,34.6233 L18.9796,52.3183 C18.2656,52.6513 17.5026,52.8193 16.7366,52.8193 C16.1236,52.8193 15.5096,52.7123 14.9156,52.4963 C13.5816,52.0103 12.5166,51.0353 11.9176,49.7483 L11.9176,49.7483 L0.4976,25.2583 C-0.7404,22.6023 0.4126,19.4333 3.0686,18.1953 L3.0686,18.1953 Z M43.2626,3.0013 C42.9286,3.0013 42.5966,3.0733 42.2846,3.2183 L42.2846,3.2183 L4.3356,20.9143 C3.1796,21.4533 2.6776,22.8333 3.2166,23.9903 L3.2166,23.9903 L14.6366,48.4803 C14.8976,49.0413 15.3616,49.4663 15.9426,49.6763 C16.5246,49.8873 17.1516,49.8613 17.7126,49.5993 L17.7126,49.5993 L55.6616,31.9043 C56.8176,31.3643 57.3206,29.9843 56.7806,28.8283 L56.7806,28.8283 L45.3606,4.3383 C45.0996,3.7773 44.6356,3.3523 44.0546,3.1413 C43.7966,3.0483 43.5286,3.0013 43.2626,3.0013 Z M41.1982,8.5343 C41.6142,7.8163 42.5302,7.5733 43.2482,7.9883 C43.9652,8.4033 44.2092,9.3213 43.7942,10.0383 L43.7942,10.0383 L35.9022,23.6563 L51.4072,26.3643 C52.2232,26.5073 52.7692,27.2843 52.6262,28.0993 C52.4842,28.9173 51.7062,29.4643 50.8902,29.3193 L50.8902,29.3193 L34.3002,26.4223 L32.7002,29.1813 C32.5912,29.3703 32.4522,29.5343 32.2982,29.6793 C32.2482,29.7263 32.1892,29.7603 32.1352,29.8033 C32.0232,29.8903 31.9092,29.9723 31.7832,30.0373 C31.7122,30.0733 31.6382,30.0983 31.5632,30.1283 C31.4412,30.1753 31.3182,30.2133 31.1882,30.2383 C31.1062,30.2543 31.0262,30.2643 30.9422,30.2703 C30.8832,30.2753 30.8262,30.2943 30.7672,30.2943 C30.6412,30.2943 30.5132,30.2833 30.3862,30.2603 L30.3862,30.2603 L27.2432,29.7123 L18.7992,44.2843 C18.5202,44.7643 18.0172,45.0323 17.4992,45.0323 C17.2442,45.0323 16.9862,44.9673 16.7492,44.8303 C16.0322,44.4153 15.7872,43.4973 16.2032,42.7803 L16.2032,42.7803 L24.0952,29.1623 L8.5902,26.4533 C7.7742,26.3103 7.2282,25.5333 7.3702,24.7183 C7.5132,23.9003 8.2912,23.3533 9.1062,23.4983 L9.1062,23.4983 L30.3732,27.2133 Z" id="letter"></path>
                    </g>
                </g>
            </g>
        </g>
    </g>
</svg>