<?xml version="1.0" encoding="UTF-8"?>
<svg width="70px" height="70px" viewBox="0 0 70 70" version="1.1" xmlns="http://www.w3.org/2000/svg" xmlns:xlink="http://www.w3.org/1999/xlink">
    <!-- Generator: sketchtool 60.1 (101010) - https://sketch.com -->
    <title>9D99AEEF-09B4-47E9-9696-4D837D904096</title>
    <desc>Created with sketchtool.</desc>
    <g id="homepage" stroke="none" stroke-width="1" fill="none" fill-rule="evenodd">
        <g id="Accueil" transform="translate(-615.000000, -1328.000000)" fill="#008344">
            <g id="process" transform="translate(215.000000, 1145.000000)">
                <g id="items" transform="translate(0.000000, 113.000000)">
                    <g id="process-item-2" transform="translate(300.000000, 0.000000)">
                        <g id="icon" transform="translate(100.000000, 70.000000)">
                            <g id="Group-13">
                                <path d="M1.3125,54.25 C2.037875,54.25 2.625,54.838 2.625,55.5625 L2.625,55.5625 L2.625,63.4375 C2.625,65.608375 4.391625,67.375 6.5625,67.375 L6.5625,67.375 L14.4375,67.375 C15.162875,67.375 15.75,67.963 15.75,68.6875 C15.75,69.412 15.162875,70 14.4375,70 L14.4375,70 L6.5625,70 C2.9435,70 0,67.0565 0,63.4375 L0,63.4375 L0,55.5625 C0,54.838 0.587125,54.25 1.3125,54.25 Z M68.6875,54.25 C69.412875,54.25 70,54.838 70,55.5625 L70,55.5625 L70,63.4375 C70,67.0565 67.0565,70 63.4375,70 L63.4375,70 L55.5625,70 C54.837125,70 54.25,69.412 54.25,68.6875 C54.25,67.963 54.837125,67.375 55.5625,67.375 L55.5625,67.375 L63.4375,67.375 C65.608375,67.375 67.375,65.608375 67.375,63.4375 L67.375,63.4375 L67.375,55.5625 C67.375,54.838 67.962125,54.25 68.6875,54.25 Z M43.550325,41.8404 C44.0202,41.288275 44.848825,41.2209 45.400075,41.689025 C45.953075,42.158025 46.02045,42.985775 45.55145,43.538775 C44.516325,44.75765 43.328075,46.04565 41.9902,47.14465 C41.915825,48.746775 42.11795,50.1319 42.612325,51.149525 C42.932575,51.81015 43.552075,52.311525 44.31245,52.52415 C46.7187,53.1979 51.364075,54.747525 55.431075,57.54315 C56.027825,57.9544 56.180075,58.770775 55.768825,59.3684 C55.5142,59.738525 55.103825,59.93715 54.68645,59.93715 C54.430075,59.93715 54.171075,59.8619 53.94445,59.707025 C50.04895,57.02865 45.41495,55.55865 43.6037,55.05115 C42.12145,54.6364 40.899075,53.6319 40.2507,52.29665 C39.77295,51.31315 39.504325,50.153775 39.4002,48.86665 C38.051825,49.54915 36.587075,49.961275 34.999825,49.9079 C34.91845,49.910525 34.837075,49.9114 34.756575,49.9114 C33.265575,49.9114 31.881325,49.50365 30.6012,48.855275 C30.49795,50.146775 30.22845,51.30965 29.749825,52.29665 C29.100575,53.631025 27.879075,54.635525 26.396825,55.05115 C24.5847,55.55865 19.9507,57.02865 16.056075,59.707025 C15.828575,59.8619 15.57045,59.93715 15.314075,59.93715 C14.895825,59.93715 14.48545,59.738525 14.230825,59.3684 C13.82045,58.770775 13.971825,57.9544 14.56945,57.54315 C18.635575,54.747525 23.281825,53.1979 25.688075,52.52415 C26.447575,52.311525 27.06795,51.809275 27.3882,51.149525 C27.882575,50.13015 28.085575,48.7424 28.010325,47.136775 C26.67245,46.0404 25.48245,44.756775 24.4482,43.538775 C23.9792,42.985775 24.046575,42.158025 24.599575,41.689025 C25.152575,41.2209 25.9812,41.288275 26.449325,41.8404 C28.78995,44.59665 31.6617,47.427275 34.954325,47.2829 L34.954325,47.2829 L35.045325,47.2829 C36.776075,47.345025 38.373825,46.6109 39.83945,45.5084 C39.863075,45.4874 39.8902,45.469025 39.915575,45.449775 C41.23595,44.4409 42.449575,43.13715 43.550325,41.8404 Z M34.999825,10.0629375 C42.699825,10.0629375 49.4347,16.3743125 51.18295,25.1470625 C52.9452,26.6686875 53.684575,29.7819375 53.028325,33.1524375 C52.746575,34.5979375 52.237325,35.9130625 51.563575,37.0024375 L51.563575,37.0024375 L63.69195,37.0024375 C64.417325,37.0024375 65.00445,37.5895625 65.00445,38.3149375 C65.00445,39.0394375 64.417325,39.6274375 63.69195,39.6274375 L63.69195,39.6274375 L6.3077,39.6274375 C5.5832,39.6274375 4.9952,39.0394375 4.9952,38.3149375 C4.9952,37.5895625 5.5832,37.0024375 6.3077,37.0024375 L6.3077,37.0024375 L18.43695,37.0024375 C17.7632,35.9121875 17.253075,34.5979375 16.9722,33.1515625 C16.31595,29.7810625 17.055325,26.6686875 18.817575,25.1470625 C20.565825,16.3743125 27.299825,10.0629375 34.999825,10.0629375 Z M34.999825,12.6879375 C28.4277,12.6879375 22.66845,18.3351875 21.30695,26.1148125 C21.243075,26.4796875 21.027825,26.7999375 20.71545,26.9976875 C19.7232,27.6250625 19.015325,29.9114375 19.5482,32.6510625 C19.920075,34.5611875 20.826575,36.2175625 21.89495,37.0024375 L21.89495,37.0024375 L48.105575,37.0024375 C49.173075,36.2175625 50.079575,34.5611875 50.45145,32.6510625 C50.9852,29.9114375 50.277325,27.6259375 49.285075,26.9976875 C48.971825,26.7999375 48.75745,26.4788125 48.693575,26.1148125 C47.3312,18.3351875 41.572825,12.6879375 34.999825,12.6879375 Z M14.4375,0 C15.162875,0 15.75,0.588 15.75,1.3125 C15.75,2.037 15.162875,2.625 14.4375,2.625 L14.4375,2.625 L6.5625,2.625 C4.391625,2.625 2.625,4.391625 2.625,6.5625 L2.625,6.5625 L2.625,14.4375 C2.625,15.162 2.037875,15.75 1.3125,15.75 C0.587125,15.75 0,15.162 0,14.4375 L0,14.4375 L0,6.5625 C0,2.9435 2.9435,0 6.5625,0 L6.5625,0 Z M63.4375,0 C67.0565,0 70,2.9435 70,6.5625 L70,6.5625 L70,14.4375 C70,15.162 69.412875,15.75 68.6875,15.75 C67.962125,15.75 67.375,15.162 67.375,14.4375 L67.375,14.4375 L67.375,6.5625 C67.375,4.391625 65.608375,2.625 63.4375,2.625 L63.4375,2.625 L55.5625,2.625 C54.837125,2.625 54.25,2.037 54.25,1.3125 C54.25,0.588 54.837125,0 55.5625,0 L55.5625,0 Z" id="Combined-Shape"></path>
                            </g>
                        </g>
                    </g>
                </g>
            </g>
        </g>
    </g>
</svg>